<svg height="511pt" viewBox="1 1 511.99912 511" width="511pt" fill="#b64d46"  xmlns="http://www.w3.org/2000/svg"><path d="m455.550781 56.949219c-36.402343-36.402344-84.800781-56.449219-136.28125-56.449219s-99.875 20.046875-136.277343 56.449219c-36.402344 36.402343-56.449219 84.800781-56.449219 136.277343 0 46.449219 16.324219 90.382813 46.25 125.265626l-23.128907 23.128906-24.992187-24.996094-109.949219 109.949219c-19.628906 19.632812-19.628906 51.570312 0 71.203125 9.816406 9.8125 22.707032 14.722656 35.601563 14.722656s25.785156-4.910156 35.601562-14.722656l109.945313-109.949219-24.992188-24.996094 23.128906-23.125c34.882813 29.925781 78.816407 46.25 125.261719 46.25 51.480469 0 99.878907-20.046875 136.28125-56.449219 36.402344-36.402343 56.449219-84.800781 56.449219-136.28125 0-51.476562-20.046875-99.875-56.449219-136.277343zm-390.839843 419.613281c-7.933594 7.933594-20.84375 7.933594-28.773438 0-7.933594-7.933594-7.933594-20.839844 0-28.773438l88.734375-88.730468 28.769531 28.769531zm369.625-168.269531c-30.734376 30.738281-71.597657 47.664062-115.066407 47.664062-43.464843 0-84.328125-16.925781-115.066406-47.664062-30.734375-30.734375-47.660156-71.597657-47.660156-115.066407 0-43.464843 16.925781-84.328124 47.660156-115.066406 30.738281-30.734375 71.601563-47.660156 115.066406-47.660156 43.46875 0 84.332031 16.925781 115.066407 47.664062 30.734374 30.734376 47.664062 71.597657 47.664062 115.066407 0 43.464843-16.929688 84.328125-47.664062 115.0625zm0 0"/><path d="m319.269531 58.835938c-74.101562 0-134.390625 60.289062-134.390625 134.394531 0 74.101562 60.289063 134.390625 134.390625 134.390625 74.105469 0 134.394531-60.289063 134.394531-134.390625 0-74.105469-60.289062-134.394531-134.394531-134.394531zm103.3125 119.394531h-48.871093c.046874-38.234375-13.867188-79.226563-14.78125-81.558594 33.507812 13.8125 58.304687 44.578125 63.652343 81.558594zm-103.3125 119.289062c-2.0625-1.09375-8.863281-7.839843-15.082031-28.421875-5.121094-16.945312-8.347656-38.152344-9.335938-60.867187h48.839844c-.992187 22.714843-4.214844 43.921875-9.335937 60.867187-6.21875 20.582032-13.019531 27.328125-15.085938 28.421875zm-24.417969-119.289062c.988282-22.71875 4.214844-43.925781 9.335938-60.871094 6.21875-20.582031 13.019531-27.328125 15.082031-28.421875 2.0625 1.09375 8.867188 7.839844 15.085938 28.421875 5.117187 16.945313 8.34375 38.152344 9.335937 60.871094zm-15.238281-81.558594c-.917969 2.332031-15.363281 43.074219-14.785156 81.558594h-48.867187c5.34375-36.980469 30.140624-67.746094 63.652343-81.558594zm-63.652343 111.558594h48.871093c.167969 44.644531 13.863281 79.226562 14.78125 81.558593-33.511719-13.816406-58.308593-44.582031-63.652343-81.558593zm142.96875 81.554687c.914062-2.328125 14.824218-36.910156 14.78125-81.554687h48.871093c-5.347656 36.976562-30.144531 67.742187-63.652343 81.554687zm0 0"/></svg>