<svg id="svg" version="1.1" width="400" height="321.3728549141966" viewBox="0 0 400 321.3728549141966" xmlns="http://www.w3.org/2000/svg" xmlns:xlink="http://www.w3.org/1999/xlink" ><g id="svgg"><path id="path0" d="M201.352 48.470 C 202.538 48.531,204.564 48.532,205.854 48.471 C 207.144 48.409,206.174 48.359,203.698 48.358 C 201.222 48.358,200.166 48.408,201.352 48.470 M394.653 161.415 C 394.653 163.272,394.706 164.031,394.771 163.103 C 394.836 162.174,394.836 160.655,394.771 159.727 C 394.706 158.798,394.653 159.558,394.653 161.415 M120.813 283.833 C 121.384 283.904,122.396 283.906,123.064 283.836 C 123.731 283.766,123.264 283.708,122.026 283.707 C 120.788 283.705,120.242 283.762,120.813 283.833 M277.733 294.439 C 278.131 294.516,278.782 294.516,279.180 294.439 C 279.578 294.363,279.252 294.300,278.457 294.300 C 277.661 294.300,277.335 294.363,277.733 294.439 " stroke="none" fill="#000000" fill-rule="evenodd"></path><path id="path1" d="M220.900 102.251 C 220.635 102.422,220.090 102.565,219.690 102.567 C 219.290 102.570,218.711 102.702,218.404 102.860 C 218.097 103.018,216.833 103.633,215.595 104.227 C 211.775 106.057,209.020 109.210,207.065 113.987 C 206.078 116.400,206.116 124.971,207.117 125.589 C 207.270 125.684,207.395 126.038,207.395 126.376 C 207.395 128.727,212.611 134.525,216.190 136.152 C 220.677 138.192,231.778 139.092,233.310 137.540 C 233.441 137.408,233.802 137.299,234.114 137.299 C 238.061 137.299,244.769 130.711,246.578 125.058 C 247.033 123.634,247.071 115.871,246.624 115.595 C 246.447 115.486,246.302 115.103,246.302 114.745 C 246.302 111.962,241.411 106.161,237.431 104.224 C 236.209 103.629,234.958 103.014,234.651 102.858 C 234.344 102.701,233.737 102.572,233.303 102.572 C 232.869 102.572,232.424 102.428,232.315 102.251 C 232.056 101.832,221.549 101.832,220.900 102.251 M33.441 102.572 C 33.441 102.749,33.707 102.894,34.034 102.894 C 34.674 102.894,35.691 103.841,35.691 104.437 C 35.691 104.639,35.981 105.319,36.334 105.949 C 36.688 106.578,36.977 107.306,36.977 107.566 C 36.977 107.826,37.122 108.039,37.299 108.039 C 37.476 108.039,37.621 108.328,37.621 108.682 C 37.621 109.035,37.765 109.325,37.942 109.325 C 38.119 109.325,38.264 109.513,38.264 109.744 C 38.264 109.974,38.616 110.879,39.048 111.754 C 39.774 113.227,41.087 116.036,43.475 121.222 C 44.004 122.371,44.712 123.882,45.048 124.578 C 45.384 125.274,45.659 126.034,45.659 126.266 C 45.659 126.498,45.804 126.688,45.981 126.688 C 46.158 126.688,46.302 126.977,46.302 127.331 C 46.302 127.685,46.447 127.974,46.624 127.974 C 46.801 127.974,46.945 128.187,46.945 128.447 C 46.945 128.707,47.235 129.435,47.588 130.064 C 48.600 131.866,48.457 132.374,46.865 132.619 C 44.510 132.983,40.658 132.703,40.048 132.123 C 39.880 131.963,39.480 131.833,39.160 131.833 C 38.074 131.833,35.370 129.867,35.370 129.079 C 35.370 128.340,34.504 127.904,34.281 128.530 C 33.684 130.203,33.417 130.939,32.507 133.410 C 31.338 136.582,31.312 136.785,32.133 136.346 C 33.295 135.724,36.090 136.043,38.018 137.017 C 38.325 137.172,38.844 137.299,39.170 137.299 C 39.497 137.299,39.871 137.408,40.001 137.540 C 40.131 137.673,41.638 137.928,43.350 138.107 C 50.587 138.864,55.371 137.033,57.741 132.599 C 58.108 131.912,58.566 131.061,58.758 130.707 C 58.951 130.354,59.472 129.268,59.916 128.296 C 60.360 127.323,61.386 125.103,62.195 123.363 C 63.004 121.622,63.666 120.142,63.666 120.073 C 63.666 120.004,64.259 118.679,64.985 117.128 C 65.710 115.578,66.812 113.223,67.432 111.897 C 70.422 105.509,71.587 103.373,72.267 103.034 C 73.563 102.388,72.637 102.251,66.988 102.251 C 61.564 102.251,60.646 102.404,62.138 103.059 C 63.143 103.501,63.055 105.378,61.913 107.878 C 61.428 108.939,60.668 110.603,60.225 111.576 C 59.782 112.548,59.000 114.196,58.488 115.238 C 57.976 116.280,57.556 117.329,57.556 117.569 C 57.556 117.810,57.412 118.006,57.235 118.006 C 57.058 118.006,56.913 118.225,56.913 118.493 C 56.913 118.761,56.774 119.231,56.605 119.538 C 56.179 120.308,54.455 124.151,54.226 124.839 C 53.897 125.832,53.054 125.453,52.439 124.035 C 52.114 123.284,51.484 121.873,51.040 120.900 C 50.596 119.928,49.913 118.408,49.523 117.524 C 49.132 116.640,48.610 115.496,48.361 114.983 C 48.113 114.469,47.910 113.854,47.910 113.616 C 47.910 113.378,47.765 113.183,47.588 113.183 C 47.412 113.183,47.267 112.980,47.267 112.731 C 47.267 112.483,46.995 111.723,46.662 111.043 C 46.329 110.363,45.734 109.084,45.340 108.199 C 44.946 107.315,44.495 106.340,44.338 106.033 C 43.826 105.036,44.007 103.570,44.695 103.141 C 45.942 102.362,45.280 102.251,39.389 102.251 C 35.638 102.251,33.441 102.370,33.441 102.572 M77.046 102.514 C 76.956 102.658,77.165 102.980,77.509 103.228 C 78.503 103.944,78.486 136.110,77.492 136.731 C 75.903 137.723,76.716 137.942,81.994 137.942 C 86.782 137.942,88.192 137.683,86.644 137.089 C 85.289 136.569,85.209 135.720,85.209 121.760 C 85.209 110.875,85.290 108.372,85.649 108.073 C 85.963 107.813,89.044 107.732,96.341 107.793 L 106.592 107.878 106.675 122.097 L 106.759 136.315 105.952 136.844 C 104.495 137.799,105.082 137.942,110.450 137.942 C 116.051 137.942,116.208 137.899,114.946 136.703 L 114.148 135.945 114.148 119.925 L 114.148 103.905 114.952 103.273 C 115.394 102.925,115.756 102.553,115.756 102.446 C 115.756 102.147,77.231 102.214,77.046 102.514 M135.048 102.440 C 135.048 102.545,135.360 102.883,135.742 103.192 C 137.097 104.289,136.946 104.719,130.831 117.203 C 129.965 118.971,129.257 120.599,129.258 120.820 C 129.259 121.041,129.151 121.222,129.017 121.222 C 128.779 121.222,128.634 121.509,127.384 124.459 C 125.331 129.303,121.725 136.097,120.871 136.728 C 119.349 137.854,119.679 137.942,125.402 137.942 C 129.932 137.942,130.868 137.863,130.868 137.481 C 130.868 137.228,130.579 136.929,130.225 136.817 C 129.525 136.595,129.323 134.902,129.868 133.838 C 130.026 133.531,130.494 132.556,130.909 131.672 C 131.324 130.788,131.748 129.992,131.852 129.904 C 131.956 129.815,132.134 129.490,132.248 129.180 C 132.438 128.664,133.145 128.617,140.778 128.617 L 149.100 128.617 150.078 130.627 C 152.369 135.332,152.411 135.518,151.447 136.744 C 151.093 137.193,150.804 137.647,150.804 137.752 C 150.804 137.856,153.635 137.942,157.095 137.942 L 163.387 137.942 161.826 136.415 C 160.968 135.575,159.961 134.236,159.589 133.441 C 159.217 132.645,156.002 126.113,152.446 118.925 C 145.771 105.433,145.062 103.548,146.463 103.010 C 147.885 102.464,146.348 102.251,140.997 102.251 C 137.725 102.251,135.048 102.336,135.048 102.440 M166.881 102.397 C 166.881 102.477,167.243 102.905,167.685 103.347 L 168.489 104.151 168.489 120.048 L 168.489 135.945 167.690 136.703 C 166.434 137.894,166.594 137.942,171.846 137.942 C 176.973 137.942,177.602 137.790,176.520 136.810 C 175.934 136.279,175.884 135.804,175.884 130.695 L 175.884 125.154 176.768 124.576 C 177.255 124.258,177.846 123.805,178.082 123.570 C 178.319 123.334,179.042 122.746,179.690 122.264 C 180.338 121.781,180.949 121.277,181.048 121.143 C 181.272 120.840,182.306 121.787,183.494 123.383 C 183.991 124.051,184.618 124.815,184.887 125.080 C 185.157 125.346,185.771 126.093,186.253 126.741 C 186.734 127.389,187.315 128.112,187.542 128.348 C 187.769 128.585,188.531 129.500,189.235 130.383 C 189.939 131.265,190.781 132.278,191.108 132.633 C 193.287 135.009,193.891 136.461,192.917 136.982 C 191.498 137.742,192.823 137.942,199.254 137.942 C 205.095 137.942,205.820 137.886,205.466 137.460 C 205.246 137.195,204.872 136.977,204.636 136.977 C 204.120 136.977,202.248 135.168,200.481 132.962 C 199.774 132.079,198.928 131.066,198.601 130.711 C 198.273 130.355,197.622 129.558,197.154 128.939 C 196.685 128.320,195.812 127.274,195.212 126.615 C 194.612 125.955,193.893 125.087,193.614 124.685 C 193.335 124.284,192.722 123.521,192.251 122.990 C 187.049 117.127,186.682 116.442,188.183 115.386 C 188.758 114.982,189.422 114.464,189.658 114.234 C 189.894 114.004,190.618 113.421,191.266 112.937 C 191.914 112.454,192.637 111.875,192.873 111.651 C 193.110 111.427,193.833 110.849,194.481 110.367 C 195.129 109.884,195.732 109.408,195.820 109.310 C 195.908 109.211,197.428 107.986,199.196 106.589 C 200.965 105.191,202.692 103.788,203.035 103.471 C 203.378 103.153,203.848 102.894,204.080 102.894 C 204.312 102.894,204.502 102.749,204.502 102.572 C 204.502 102.368,201.983 102.251,197.588 102.251 C 193.194 102.251,190.675 102.368,190.675 102.572 C 190.675 102.749,190.875 102.894,191.118 102.894 C 191.362 102.894,191.736 103.105,191.950 103.362 C 192.602 104.148,191.836 104.899,184.289 110.880 C 183.695 111.351,182.754 112.120,182.199 112.590 C 179.133 115.182,176.337 117.283,176.125 117.153 C 175.499 116.766,175.860 103.696,176.510 103.228 C 176.854 102.980,177.063 102.658,176.973 102.514 C 176.808 102.246,166.881 102.131,166.881 102.397 M253.593 102.481 C 253.493 102.644,253.692 102.980,254.037 103.228 C 255.069 103.972,255.007 135.765,253.971 136.868 C 252.939 137.966,252.955 137.967,267.373 137.839 C 283.990 137.691,285.056 137.507,288.264 134.251 C 290.366 132.117,291.780 125.801,290.354 124.920 C 290.177 124.810,290.032 124.368,290.032 123.936 C 290.032 123.504,289.912 123.151,289.765 123.151 C 289.618 123.151,289.308 122.796,289.075 122.362 C 288.843 121.928,287.878 121.058,286.931 120.429 C 284.966 119.125,284.861 118.846,286.094 118.208 C 288.407 117.012,289.389 114.894,289.389 111.102 C 289.389 109.432,289.245 107.988,289.068 107.878 C 288.891 107.769,288.746 107.427,288.746 107.118 C 288.746 106.034,285.070 103.215,283.656 103.215 C 283.343 103.215,282.906 103.035,282.685 102.814 C 282.193 102.321,253.892 101.998,253.593 102.481 M296.785 102.446 C 296.785 102.553,297.146 102.925,297.588 103.273 L 298.392 103.905 298.392 119.925 L 298.392 135.945 297.594 136.703 C 296.333 137.899,296.489 137.942,302.090 137.942 C 307.455 137.942,308.045 137.799,306.592 136.846 L 305.788 136.320 305.788 130.884 C 305.788 125.028,305.711 125.310,307.712 123.794 C 308.295 123.352,309.223 122.595,309.772 122.111 C 311.169 120.883,311.540 120.982,313.183 123.022 C 313.979 124.010,315.788 126.230,317.203 127.954 C 323.991 136.230,324.050 136.325,322.830 136.977 C 321.323 137.784,322.295 137.955,327.890 137.869 C 334.340 137.770,334.685 137.612,332.782 135.629 C 332.221 135.044,330.584 133.131,329.145 131.377 C 327.705 129.623,325.949 127.520,325.241 126.703 C 324.534 125.886,323.521 124.653,322.990 123.963 C 322.028 122.712,320.434 120.831,319.037 119.298 C 317.323 117.419,316.865 116.359,317.550 115.858 C 317.890 115.611,318.457 115.159,318.810 114.854 C 319.164 114.549,319.960 113.947,320.579 113.516 C 321.198 113.084,321.921 112.506,322.186 112.230 C 322.452 111.955,323.199 111.335,323.847 110.853 C 324.495 110.372,325.218 109.795,325.454 109.571 C 325.691 109.347,327.331 108.012,329.100 106.603 C 330.868 105.194,332.596 103.784,332.938 103.468 C 333.281 103.152,333.905 102.894,334.324 102.894 C 334.750 102.894,334.999 102.752,334.887 102.572 C 334.765 102.374,331.997 102.251,327.653 102.251 C 323.309 102.251,320.541 102.374,320.418 102.572 C 320.309 102.749,320.499 102.894,320.842 102.894 C 321.823 102.894,322.364 103.733,321.824 104.420 C 321.087 105.358,320.843 105.576,317.846 107.990 C 316.254 109.272,314.735 110.496,314.469 110.711 C 314.204 110.926,313.336 111.607,312.541 112.223 C 311.745 112.840,310.877 113.565,310.611 113.835 C 309.552 114.913,306.642 117.042,306.228 117.042 C 305.870 117.042,305.790 115.833,305.798 110.531 C 305.808 103.987,305.984 102.894,307.029 102.894 C 307.231 102.894,307.395 102.749,307.395 102.572 C 307.395 102.371,305.413 102.251,302.090 102.251 C 299.172 102.251,296.785 102.339,296.785 102.446 M352.306 102.463 C 352.190 102.580,352.383 102.877,352.735 103.124 C 353.822 103.886,353.561 105.580,351.805 109.164 C 350.938 110.932,349.794 113.320,349.263 114.469 C 347.792 117.656,345.209 123.095,342.546 128.617 C 341.224 131.359,340.000 133.899,339.825 134.263 C 339.650 134.628,339.553 135.568,339.609 136.353 L 339.711 137.781 343.810 137.871 C 348.039 137.964,348.826 137.704,347.267 136.731 C 346.296 136.125,346.472 134.995,348.058 131.646 L 349.493 128.617 357.871 128.617 L 366.249 128.617 367.652 131.620 C 369.607 135.803,369.606 135.800,368.663 136.695 C 367.381 137.911,367.518 137.942,374.116 137.942 C 378.081 137.942,380.386 137.824,380.386 137.621 C 380.386 137.444,380.252 137.299,380.089 137.299 C 378.735 137.299,375.270 130.934,364.861 109.325 C 362.508 104.441,362.490 104.362,363.451 103.401 C 363.885 102.967,364.159 102.530,364.060 102.431 C 363.805 102.175,352.563 102.206,352.306 102.463 M230.078 107.513 C 233.769 108.496,236.804 110.892,238.183 113.911 C 238.404 114.395,238.766 115.175,238.987 115.644 C 240.108 118.020,239.056 126.329,237.555 126.956 C 237.414 127.015,237.299 127.228,237.299 127.430 C 237.299 128.064,234.172 130.733,232.731 131.328 C 231.972 131.642,231.099 132.029,230.792 132.187 C 229.953 132.621,223.483 132.528,222.186 132.063 C 218.505 130.743,214.469 126.581,214.469 124.104 C 214.469 123.778,214.325 123.421,214.148 123.312 C 213.707 123.040,213.740 117.286,214.189 116.173 C 217.045 109.081,223.255 105.696,230.078 107.513 M279.837 108.192 C 284.358 110.081,282.769 116.020,277.612 116.507 C 273.630 116.883,262.870 116.760,262.444 116.334 C 261.892 115.783,261.906 108.153,262.460 107.930 C 263.533 107.497,278.722 107.726,279.837 108.192 M141.801 112.533 C 141.801 112.870,141.945 113.235,142.122 113.344 C 142.299 113.453,142.444 113.824,142.444 114.167 C 142.444 114.510,142.588 114.791,142.765 114.791 C 142.942 114.791,143.087 114.994,143.087 115.243 C 143.087 115.491,143.371 116.251,143.719 116.931 C 144.966 119.368,146.624 123.207,146.624 123.657 C 146.624 124.037,145.638 124.116,140.863 124.116 C 134.574 124.116,134.419 124.066,135.359 122.347 C 135.649 121.817,136.222 120.587,136.633 119.614 C 139.068 113.839,140.537 111.244,141.176 111.585 C 141.520 111.769,141.801 112.195,141.801 112.533 M359.533 114.068 C 360.257 115.615,361.121 117.496,361.453 118.248 C 361.786 118.999,362.343 120.229,362.691 120.981 C 363.039 121.732,363.416 122.745,363.530 123.232 L 363.735 124.116 357.878 124.116 L 352.020 124.116 352.227 123.232 C 352.340 122.745,352.849 121.479,353.358 120.418 C 353.866 119.357,355.050 116.861,355.989 114.871 C 358.037 110.533,357.895 110.565,359.533 114.068 M280.471 122.588 C 284.854 125.038,283.981 130.950,279.069 132.074 C 276.677 132.621,262.988 132.635,262.444 132.090 C 262.029 131.675,261.872 122.801,262.272 122.401 C 262.692 121.982,279.698 122.157,280.471 122.588 " stroke="none" fill="#ffffff" fill-rule="evenodd"></path><path id="path2" d="M394.212 41.158 C 394.212 41.364,391.217 41.479,385.871 41.479 C 380.657 41.479,377.455 41.600,377.331 41.801 C 377.207 42.001,374.112 42.122,369.113 42.122 C 363.981 42.122,361.093 42.238,361.093 42.444 C 361.093 42.621,360.445 42.765,359.652 42.765 C 357.841 42.765,357.964 42.140,357.711 52.572 C 357.519 60.469,357.470 60.973,356.833 61.656 C 355.931 62.622,354.093 62.635,353.069 61.681 L 352.320 60.983 352.462 52.597 C 352.650 41.510,353.172 42.765,348.370 42.765 C 345.920 42.765,344.373 42.890,344.373 43.087 C 344.373 43.264,344.020 43.408,343.588 43.408 C 342.361 43.408,342.316 43.687,342.064 53.055 C 341.933 57.918,341.672 66.383,341.485 71.865 C 340.462 101.819,339.907 119.020,339.716 126.688 L 339.544 133.601 341.396 129.872 C 342.414 127.821,343.927 124.710,344.757 122.959 C 345.587 121.208,347.302 117.605,348.568 114.952 C 353.648 104.306,353.599 104.451,352.412 103.376 C 350.937 102.042,351.385 101.929,358.165 101.929 C 364.820 101.929,366.050 102.198,364.122 103.229 C 362.817 103.928,363.151 104.963,367.549 113.850 C 369.862 118.524,373.131 125.130,374.813 128.531 C 378.109 135.193,378.759 136.221,379.969 136.681 C 380.469 136.871,380.715 137.183,380.646 137.541 C 380.548 138.050,379.933 138.111,374.135 138.190 C 367.117 138.286,366.484 138.144,367.936 136.798 C 369.072 135.745,369.052 135.548,367.486 132.228 C 365.802 128.661,366.646 128.949,357.878 128.949 C 349.105 128.949,349.912 128.673,348.251 132.235 C 346.675 135.614,346.674 135.629,347.987 136.732 C 349.516 138.017,348.844 138.253,343.650 138.259 C 341.218 138.261,339.221 138.300,339.212 138.344 C 339.203 138.388,339.053 143.127,338.880 148.875 C 338.706 154.622,338.432 163.376,338.271 168.328 C 338.110 173.280,337.832 182.251,337.653 188.264 C 337.473 194.277,337.177 203.465,336.995 208.682 C 336.475 223.521,336.015 237.486,335.664 249.035 C 335.486 254.871,335.202 263.915,335.031 269.132 C 334.284 291.998,334.184 297.275,334.492 297.669 C 334.709 297.947,335.887 298.071,338.303 298.071 C 340.420 298.071,341.801 298.198,341.801 298.392 C 341.801 298.592,343.569 298.714,346.463 298.714 C 349.357 298.714,351.125 298.836,351.125 299.035 C 351.125 299.235,352.894 299.357,355.788 299.357 C 358.682 299.357,360.450 299.479,360.450 299.678 C 360.450 299.877,362.105 300.000,364.772 300.000 C 367.306 300.000,369.176 300.133,369.293 300.322 C 369.410 300.511,371.326 300.643,373.955 300.643 C 376.584 300.643,378.500 300.775,378.617 300.965 C 379.053 301.670,387.781 301.364,387.781 300.643 C 387.781 300.289,387.926 300.000,388.103 300.000 C 388.307 300.000,388.424 297.588,388.424 293.408 C 388.424 289.228,388.542 286.817,388.746 286.817 C 388.949 286.817,389.068 284.512,389.068 280.547 C 389.068 276.581,389.186 274.277,389.389 274.277 C 389.593 274.277,389.711 271.925,389.711 267.865 C 389.711 263.937,389.835 261.376,390.032 261.254 C 390.229 261.132,390.354 258.571,390.354 254.643 C 390.354 250.583,390.472 248.232,390.675 248.232 C 390.879 248.232,390.997 245.933,390.997 241.980 C 390.997 238.160,391.122 235.652,391.318 235.531 C 391.515 235.409,391.640 232.848,391.640 228.920 C 391.640 225.039,391.762 222.508,391.949 222.508 C 392.129 222.508,392.329 219.880,392.430 216.158 C 392.525 212.665,392.682 206.914,392.778 203.379 C 392.875 199.843,393.092 196.812,393.261 196.642 C 393.435 196.468,393.569 193.719,393.569 190.310 C 393.569 186.997,393.699 183.945,393.858 183.527 C 394.017 183.109,394.254 177.240,394.384 170.484 C 394.515 163.727,394.747 158.199,394.900 158.199 C 395.052 158.199,395.177 155.233,395.177 151.608 C 395.177 147.428,395.294 145.016,395.498 145.016 C 395.702 145.016,395.820 142.712,395.820 138.746 C 395.820 134.780,395.938 132.476,396.141 132.476 C 396.345 132.476,396.463 130.118,396.463 126.045 C 396.463 121.972,396.581 119.614,396.785 119.614 C 396.988 119.614,397.106 117.203,397.106 113.023 C 397.106 108.842,397.224 106.431,397.428 106.431 C 397.631 106.431,397.749 104.126,397.749 100.161 C 397.749 96.195,397.867 93.891,398.071 93.891 C 398.275 93.891,398.392 91.479,398.392 87.299 C 398.392 83.119,398.510 80.707,398.714 80.707 C 398.917 80.707,399.035 78.371,399.035 74.341 C 399.035 70.839,399.168 67.837,399.331 67.669 C 399.493 67.501,399.731 61.395,399.858 54.100 L 400.091 40.836 397.152 40.836 C 395.406 40.836,394.212 40.967,394.212 41.158 M327.974 43.721 C 327.974 43.939,325.126 44.051,319.614 44.051 C 314.255 44.051,311.254 44.167,311.254 44.373 C 311.254 44.579,308.307 44.695,303.055 44.695 C 297.803 44.695,294.855 44.810,294.855 45.016 C 294.855 45.222,291.854 45.338,286.495 45.338 C 281.136 45.338,278.135 45.453,278.135 45.659 C 278.135 45.865,275.140 45.981,269.794 45.981 C 264.580 45.981,261.378 46.101,261.254 46.302 C 261.130 46.503,258.035 46.624,253.036 46.624 C 247.904 46.624,245.016 46.740,245.016 46.945 C 245.016 47.151,242.015 47.267,236.656 47.267 C 231.297 47.267,228.296 47.382,228.296 47.588 C 228.296 47.794,225.530 47.913,220.659 47.918 C 216.459 47.923,211.648 48.059,209.968 48.220 C 208.288 48.381,200.650 48.616,192.995 48.743 C 185.340 48.869,179.001 49.095,178.909 49.245 C 178.816 49.395,175.068 49.518,170.579 49.518 C 165.485 49.518,162.343 49.639,162.219 49.839 C 162.095 50.040,159.006 50.161,154.019 50.161 C 149.032 50.161,145.944 50.282,145.820 50.482 C 145.696 50.683,142.554 50.804,137.460 50.804 C 132.366 50.804,129.224 50.925,129.100 51.125 C 128.976 51.326,125.834 51.447,120.740 51.447 C 115.645 51.447,112.503 51.568,112.379 51.768 C 112.255 51.969,109.107 52.090,104.000 52.090 C 98.761 52.090,95.820 52.206,95.820 52.412 C 95.820 52.618,92.819 52.733,87.460 52.733 C 82.101 52.733,79.100 52.849,79.100 53.055 C 79.100 53.261,76.161 53.376,70.927 53.376 C 64.676 53.376,62.723 53.471,62.619 53.778 C 62.514 54.090,60.629 54.154,54.232 54.066 C 48.352 53.984,45.981 54.054,45.981 54.307 C 45.981 54.557,43.555 54.662,37.781 54.662 C 32.529 54.662,29.582 54.778,29.582 54.984 C 29.582 55.190,26.581 55.305,21.222 55.305 C 15.863 55.305,12.862 55.421,12.862 55.627 C 12.862 55.831,10.489 55.949,6.387 55.949 L -0.087 55.949 0.148 70.498 C 0.280 78.620,0.512 85.096,0.674 85.155 C 0.835 85.215,0.965 88.345,0.965 92.149 C 0.965 96.526,1.082 99.035,1.286 99.035 C 1.491 99.035,1.608 101.608,1.608 106.109 C 1.608 110.611,1.725 113.183,1.929 113.183 C 2.134 113.183,2.251 115.702,2.251 120.096 C 2.251 124.491,2.368 127.010,2.572 127.010 C 2.777 127.010,2.894 129.528,2.894 133.923 C 2.894 138.317,3.011 140.836,3.215 140.836 C 3.420 140.836,3.537 143.408,3.537 147.910 C 3.537 152.412,3.654 154.984,3.859 154.984 C 4.063 154.984,4.180 157.503,4.180 161.897 C 4.180 166.292,4.297 168.810,4.502 168.810 C 4.706 168.810,4.823 171.329,4.823 175.723 C 4.823 179.526,4.948 182.637,5.102 182.637 C 5.255 182.637,5.487 188.673,5.619 196.051 C 5.750 203.429,5.986 209.805,6.144 210.220 C 6.302 210.635,6.431 213.923,6.431 217.526 C 6.431 221.547,6.555 224.155,6.752 224.277 C 6.951 224.399,7.074 227.114,7.074 231.350 C 7.074 235.587,7.197 238.302,7.395 238.424 C 7.594 238.547,7.717 241.268,7.717 245.517 C 7.717 249.899,7.834 252.412,8.039 252.412 C 8.243 252.412,8.360 254.930,8.360 259.325 C 8.360 263.719,8.477 266.238,8.682 266.238 C 8.882 266.238,9.003 268.114,9.003 271.222 L 9.003 276.206 13.183 276.206 C 15.756 276.206,17.363 276.329,17.363 276.527 C 17.363 276.727,19.132 276.849,22.026 276.849 C 24.920 276.849,26.688 276.971,26.688 277.170 C 26.688 277.370,28.457 277.492,31.350 277.492 C 34.244 277.492,36.013 277.614,36.013 277.814 C 36.013 278.013,37.781 278.135,40.675 278.135 C 43.569 278.135,45.338 278.257,45.338 278.457 C 45.338 278.989,51.752 278.873,51.958 278.337 C 52.199 277.710,51.110 255.008,49.859 234.566 C 49.034 221.077,48.891 219.062,48.691 218.099 C 48.111 215.298,50.437 213.240,52.770 214.489 C 53.781 215.030,54.055 216.228,54.384 221.543 C 55.435 238.539,55.863 246.076,56.913 266.077 C 57.693 280.938,57.205 279.409,61.174 279.416 C 62.981 279.419,63.987 279.546,63.987 279.771 C 63.987 280.017,65.438 280.052,68.899 279.892 C 73.218 279.691,73.862 279.726,74.244 280.185 C 74.597 280.611,75.350 280.707,78.316 280.707 C 80.396 280.707,82.041 280.845,82.154 281.029 C 82.271 281.218,84.188 281.350,86.817 281.350 C 89.446 281.350,91.362 281.483,91.479 281.672 C 91.597 281.862,93.572 281.994,96.321 281.994 C 99.202 281.994,100.965 282.116,100.965 282.315 C 100.965 282.515,102.727 282.637,105.608 282.637 C 108.357 282.637,110.333 282.768,110.450 282.958 C 110.564 283.142,112.257 283.283,114.408 283.287 C 116.476 283.290,120.772 283.503,123.955 283.760 C 127.138 284.016,131.515 284.230,133.682 284.235 C 136.087 284.241,137.621 284.370,137.621 284.566 C 137.621 284.765,139.389 284.887,142.283 284.887 C 145.177 284.887,146.945 285.009,146.945 285.209 C 146.945 285.409,148.714 285.531,151.608 285.531 C 154.502 285.531,156.270 285.653,156.270 285.852 C 156.270 286.052,158.039 286.174,160.932 286.174 C 163.826 286.174,165.595 286.296,165.595 286.495 C 165.595 286.695,167.357 286.817,170.238 286.817 C 172.987 286.817,174.963 286.948,175.080 287.138 C 175.198 287.329,177.174 287.460,179.923 287.460 C 182.804 287.460,184.566 287.582,184.566 287.781 C 184.566 287.980,186.227 288.103,188.907 288.103 C 191.586 288.103,193.248 288.226,193.248 288.424 C 193.248 288.624,195.016 288.746,197.910 288.746 C 200.804 288.746,202.572 288.868,202.572 289.068 C 202.572 289.267,204.341 289.389,207.235 289.389 C 210.129 289.389,211.897 289.511,211.897 289.711 C 211.897 289.910,213.666 290.032,216.559 290.032 C 219.453 290.032,221.222 290.154,221.222 290.354 C 221.222 290.553,222.990 290.675,225.884 290.675 C 228.778 290.675,230.547 290.797,230.547 290.997 C 230.547 291.196,232.309 291.318,235.190 291.318 C 237.939 291.318,239.915 291.450,240.032 291.640 C 240.148 291.828,241.997 291.961,244.488 291.961 C 246.830 291.961,248.883 292.098,249.051 292.266 C 249.219 292.433,251.383 292.646,253.859 292.740 C 256.334 292.833,260.458 293.054,263.023 293.231 C 265.587 293.407,270.000 293.689,272.830 293.857 C 275.659 294.025,280.217 294.313,282.958 294.498 C 285.699 294.683,289.642 294.839,291.720 294.845 C 294.018 294.851,295.498 294.981,295.498 295.177 C 295.498 295.375,297.153 295.498,299.820 295.498 C 302.355 295.498,304.224 295.631,304.341 295.820 C 304.458 296.009,306.374 296.141,309.003 296.141 C 311.632 296.141,313.549 296.274,313.666 296.463 C 313.783 296.652,315.699 296.785,318.328 296.785 C 320.957 296.785,322.873 296.917,322.990 297.106 C 323.100 297.283,324.408 297.428,325.897 297.428 C 329.155 297.428,328.848 298.143,329.069 290.032 C 329.398 277.926,329.903 261.900,330.707 237.942 C 331.162 224.413,331.680 208.497,331.859 202.572 C 332.174 192.108,332.477 182.761,333.125 163.505 C 333.297 158.376,333.530 150.599,333.642 146.222 L 333.846 138.264 328.006 138.264 C 321.857 138.264,320.722 137.965,322.349 136.776 C 323.174 136.172,322.840 135.567,319.249 131.172 C 317.593 129.145,315.370 126.403,314.309 125.078 C 311.369 121.407,311.291 121.358,310.109 122.431 C 309.766 122.742,308.834 123.498,308.039 124.110 C 306.032 125.656,306.120 125.349,306.114 130.803 C 306.109 135.698,306.113 135.726,306.951 136.502 C 308.618 138.047,308.002 138.264,301.939 138.264 C 296.710 138.264,296.463 138.235,296.463 137.632 C 296.463 137.284,296.752 136.845,297.106 136.656 C 297.736 136.319,297.749 135.983,297.749 120.088 C 297.749 104.212,297.735 103.855,297.106 103.462 C 295.156 102.244,296.180 101.929,302.090 101.929 C 308.179 101.929,308.285 101.966,306.913 103.596 C 306.119 104.539,306.109 104.625,306.109 110.475 C 306.109 116.936,306.129 116.992,307.870 115.514 C 308.443 115.028,309.185 114.411,309.520 114.144 C 322.360 103.883,322.398 103.846,320.713 103.205 C 318.516 102.370,320.108 102.091,327.553 102.004 L 334.956 101.918 335.168 99.431 C 335.285 98.064,335.514 92.026,335.679 86.013 C 335.843 80.000,336.140 70.378,336.337 64.630 C 336.535 58.883,336.724 51.793,336.757 48.875 L 336.817 43.569 332.395 43.480 C 329.523 43.422,327.974 43.506,327.974 43.721 M231.190 101.603 C 244.624 104.185,251.302 116.724,245.577 128.617 C 239.204 141.857,214.363 142.065,207.987 128.932 C 200.428 113.362,213.327 98.169,231.190 101.603 M46.063 102.331 C 46.137 102.552,45.787 102.984,45.286 103.291 C 43.935 104.117,43.886 103.925,47.497 111.897 C 48.578 114.284,52.200 122.414,52.761 123.714 C 53.374 125.134,53.608 125.041,54.500 123.024 C 54.922 122.070,55.855 120.030,56.573 118.490 C 57.291 116.951,57.878 115.648,57.878 115.595 C 57.878 115.542,58.466 114.217,59.185 112.653 C 59.904 111.088,60.700 109.337,60.954 108.762 C 61.207 108.187,61.638 107.233,61.910 106.641 C 62.698 104.931,62.664 103.760,61.817 103.384 C 61.419 103.207,61.093 102.808,61.093 102.496 C 61.093 101.974,61.589 101.929,67.363 101.929 C 74.047 101.929,74.973 102.184,72.650 103.386 C 71.664 103.896,71.571 104.061,68.436 110.892 C 67.919 112.019,67.013 113.972,66.424 115.232 C 65.834 116.493,64.851 118.609,64.240 119.936 C 57.445 134.670,56.780 135.730,53.237 137.463 C 49.910 139.091,43.387 139.097,38.260 137.478 C 34.956 136.434,32.963 136.128,32.660 136.618 C 32.241 137.296,31.189 137.032,31.205 136.254 C 31.229 135.156,34.187 127.564,34.651 127.410 C 34.881 127.333,35.262 127.763,35.527 128.399 C 36.525 130.786,39.734 132.203,44.283 132.264 C 47.776 132.310,48.066 132.127,47.253 130.386 C 44.924 125.400,43.259 121.818,42.695 120.579 C 42.332 119.783,41.351 117.685,40.514 115.916 C 39.678 114.148,38.665 111.977,38.263 111.093 C 35.183 104.313,34.761 103.558,33.942 103.352 C 33.422 103.222,33.119 102.922,33.119 102.537 C 33.119 101.772,45.806 101.570,46.063 102.331 M116.158 102.331 C 116.232 102.552,115.882 103.117,115.381 103.586 L 114.469 104.438 114.469 119.764 C 114.469 135.254,114.527 136.094,115.642 136.752 C 115.881 136.894,116.077 137.292,116.077 137.637 C 116.077 138.526,105.262 138.622,104.922 137.735 C 104.787 137.383,105.006 136.997,105.575 136.583 L 106.431 135.959 106.431 121.994 L 106.431 108.030 96.222 108.114 L 86.013 108.199 86.013 122.125 L 86.013 136.050 86.787 136.633 C 88.547 137.961,87.628 138.264,81.833 138.264 C 75.977 138.264,75.076 137.953,76.957 136.583 L 77.814 135.959 77.814 120.103 L 77.814 104.248 77.015 103.490 C 76.576 103.074,76.214 102.552,76.211 102.331 C 76.203 101.742,115.961 101.742,116.158 102.331 M147.588 102.294 C 147.588 102.495,147.217 103.003,146.764 103.423 C 145.688 104.420,145.296 103.431,152.803 118.650 C 156.337 125.812,159.533 132.323,159.907 133.119 C 160.281 133.915,161.289 135.253,162.146 136.092 C 164.324 138.223,164.225 138.264,156.884 138.264 C 149.816 138.264,149.056 138.043,150.943 136.539 C 152.004 135.693,151.934 135.314,150.047 131.672 L 148.714 129.100 141.318 129.009 C 132.077 128.896,132.886 128.650,131.252 132.064 C 129.666 135.378,129.625 135.756,130.760 136.583 C 132.665 137.971,131.761 138.264,125.563 138.264 C 119.140 138.264,118.731 138.096,120.658 136.262 C 121.699 135.271,122.563 133.645,126.688 124.920 C 128.657 120.754,131.710 114.367,134.108 109.395 C 136.154 105.153,136.380 104.093,135.370 103.462 C 133.356 102.205,134.397 101.929,141.158 101.929 C 145.741 101.929,147.588 102.034,147.588 102.294 M177.814 102.321 C 177.814 102.536,177.449 103.026,177.003 103.409 L 176.192 104.106 176.279 110.429 L 176.367 116.752 183.601 110.918 C 192.351 103.862,192.400 103.810,190.810 103.205 C 190.353 103.032,190.040 102.710,190.113 102.490 C 190.335 101.822,205.145 101.749,205.145 102.416 C 205.145 102.690,204.852 103.023,204.495 103.155 C 203.570 103.497,187.803 116.168,187.791 116.579 C 187.786 116.766,189.029 118.430,190.554 120.276 C 201.750 133.833,203.565 135.914,204.721 136.523 C 207.289 137.876,206.550 138.095,199.108 138.190 C 191.956 138.280,190.731 138.030,192.391 136.815 C 192.685 136.600,192.926 136.265,192.926 136.071 C 192.926 135.787,187.324 128.518,186.031 127.126 C 185.844 126.925,185.474 126.488,185.209 126.156 C 183.392 123.883,181.796 121.993,181.537 121.810 C 181.261 121.613,178.676 123.447,176.911 125.092 C 175.734 126.188,175.831 135.571,177.031 136.614 C 178.535 137.922,178.006 138.096,172.233 138.191 C 166.385 138.287,165.433 137.991,167.233 136.633 L 168.006 136.050 168.006 120.086 L 168.006 104.123 167.283 103.537 C 165.538 102.125,166.134 101.929,172.186 101.929 C 176.395 101.929,177.814 102.028,177.814 102.321 M283.441 102.535 C 283.971 102.776,284.767 103.129,285.209 103.320 C 290.730 105.693,291.828 114.945,286.962 118.096 C 285.565 119.002,285.568 119.020,287.299 120.114 C 292.737 123.551,292.422 132.577,286.736 136.214 C 284.074 137.917,282.962 138.031,267.685 138.165 C 252.326 138.299,251.994 138.266,253.462 136.734 L 254.341 135.817 254.341 119.845 L 254.341 103.873 253.537 103.347 C 253.095 103.057,252.733 102.610,252.733 102.354 C 252.733 101.686,281.955 101.858,283.441 102.535 M333.190 103.939 C 332.334 104.565,330.393 106.117,328.129 107.985 C 327.772 108.280,326.976 108.902,326.360 109.369 C 325.745 109.835,324.926 110.486,324.541 110.816 C 324.156 111.145,322.461 112.500,320.775 113.826 C 317.394 116.485,317.376 116.514,318.409 117.738 C 318.806 118.210,319.349 118.863,319.614 119.189 C 322.113 122.265,324.594 125.271,324.740 125.402 C 324.839 125.490,325.446 126.214,326.090 127.010 C 326.733 127.805,327.529 128.770,327.858 129.153 C 328.187 129.536,328.674 130.117,328.939 130.444 C 332.832 135.245,333.691 136.192,333.932 135.951 C 334.037 135.845,334.264 131.077,334.437 125.355 C 334.609 119.633,334.836 112.311,334.942 109.084 C 335.154 102.582,335.133 102.518,333.190 103.939 M223.151 107.995 C 215.158 109.686,211.521 120.439,216.583 127.412 C 220.868 133.315,230.341 133.937,235.615 128.663 C 237.145 127.133,237.494 126.577,238.556 123.986 C 239.048 122.783,239.046 117.084,238.552 115.878 C 237.544 113.413,237.235 112.879,236.010 111.488 C 233.344 108.460,227.919 106.986,223.151 107.995 M262.915 108.253 C 262.797 108.371,262.701 110.180,262.701 112.272 L 262.701 116.077 270.776 116.077 C 280.249 116.077,280.957 115.899,281.676 113.329 C 282.367 110.861,281.367 109.058,278.939 108.394 C 277.550 108.014,263.280 107.888,262.915 108.253 M139.975 113.456 C 137.324 119.116,136.499 120.901,135.981 122.106 L 135.393 123.473 140.687 123.473 C 144.099 123.473,145.981 123.355,145.981 123.142 C 145.981 122.960,145.490 121.766,144.889 120.489 C 144.289 119.212,143.493 117.480,143.121 116.640 C 140.757 111.310,140.909 111.463,139.975 113.456 M356.166 115.465 C 353.379 121.402,352.629 123.155,352.802 123.327 C 352.891 123.416,355.288 123.449,358.128 123.400 L 363.293 123.312 362.703 122.026 C 362.379 121.318,361.230 118.795,360.149 116.418 C 359.069 114.042,358.118 112.030,358.036 111.948 C 357.954 111.866,357.112 113.448,356.166 115.465 M262.701 127.170 L 262.701 131.833 270.498 131.831 C 281.234 131.829,282.637 131.301,282.637 127.266 C 282.637 122.984,281.446 122.508,270.733 122.508 L 262.701 122.508 262.701 127.170 M58.960 158.306 C 59.206 158.895,59.806 159.691,60.294 160.075 L 61.180 160.772 95.356 160.772 L 129.533 160.772 130.480 159.974 C 131.001 159.536,131.609 158.740,131.830 158.206 C 132.147 157.442,132.431 157.235,133.163 157.235 L 134.093 157.235 134.008 167.283 L 133.923 177.331 133.216 177.432 C 132.685 177.507,132.302 177.205,131.677 176.214 C 130.000 173.557,130.388 173.621,116.559 173.713 L 104.341 173.794 104.259 204.215 C 104.167 238.250,103.995 235.594,106.366 236.730 C 107.023 237.045,107.235 237.381,107.235 238.107 L 107.235 239.068 95.177 239.068 L 83.119 239.068 83.022 238.229 C 82.943 237.553,83.117 237.311,83.919 236.979 C 84.466 236.752,85.342 236.048,85.865 235.413 L 86.817 234.259 86.812 204.348 C 86.809 187.897,86.689 174.251,86.545 174.024 C 86.337 173.697,83.707 173.630,73.872 173.703 C 59.915 173.806,60.411 173.718,59.003 176.322 C 58.492 177.269,58.196 177.494,57.556 177.422 L 56.752 177.331 56.667 167.688 C 56.620 162.385,56.652 157.863,56.737 157.640 C 57.074 156.764,58.493 157.189,58.960 158.306 M189.389 160.278 C 205.427 162.975,218.854 173.471,222.927 186.495 C 224.689 192.127,224.904 193.629,224.912 200.322 C 224.921 208.159,224.201 211.806,221.512 217.524 C 207.276 247.801,154.616 248.213,139.318 218.167 C 135.879 211.411,134.257 199.915,135.704 192.540 C 137.749 182.119,141.705 175.250,149.035 169.397 C 152.352 166.749,158.902 163.023,160.240 163.023 C 160.461 163.023,160.781 162.903,160.949 162.757 C 161.117 162.611,161.905 162.305,162.701 162.076 C 163.497 161.848,164.510 161.549,164.952 161.412 C 165.743 161.166,167.735 160.752,170.900 160.176 C 173.585 159.687,186.293 159.757,189.389 160.278 M323.408 161.158 C 324.182 161.932,323.821 162.659,322.336 163.316 C 319.754 164.458,319.916 161.865,320.012 200.461 L 320.096 234.685 321.041 235.670 C 321.560 236.212,322.128 236.656,322.302 236.656 C 322.853 236.656,323.794 237.697,323.794 238.307 C 323.794 239.212,323.164 239.253,310.932 239.157 L 299.518 239.068 299.518 238.119 C 299.518 237.351,299.746 237.050,300.710 236.542 C 303.018 235.326,302.894 237.163,302.894 204.238 C 302.894 187.965,302.806 174.422,302.699 174.142 C 302.499 173.622,259.713 173.319,258.386 173.829 C 257.928 174.005,257.878 176.970,257.878 204.084 C 257.878 237.688,257.706 235.256,260.180 236.646 C 261.174 237.205,261.415 237.524,261.415 238.284 L 261.415 239.228 249.347 239.228 C 238.471 239.228,237.259 239.176,237.077 238.702 C 236.811 238.010,237.300 237.279,238.453 236.642 C 238.968 236.358,239.715 235.645,240.113 235.057 L 240.836 233.988 240.836 199.948 C 240.836 173.310,240.749 165.753,240.434 165.195 C 239.934 164.309,239.361 163.830,238.023 163.179 C 236.985 162.674,236.798 162.257,237.173 161.280 C 237.430 160.610,322.739 160.488,323.408 161.158 M176.045 172.864 C 148.753 175.684,143.990 215.518,169.775 225.304 C 175.712 227.557,184.979 227.480,190.893 225.127 C 205.099 219.477,211.474 203.237,205.306 188.413 C 202.449 181.546,196.194 175.879,189.389 173.991 C 188.593 173.770,187.481 173.449,186.918 173.277 C 185.811 172.938,178.142 172.647,176.045 172.864 " stroke="none" fill="#4d4c4d" fill-rule="evenodd"></path><path id="path3" d="M326.094 0.600 C 325.363 1.235,325.058 4.180,325.723 4.180 C 325.900 4.180,326.045 4.335,326.045 4.525 C 326.045 5.743,326.548 5.788,340.170 5.788 L 353.376 5.788 353.376 8.020 C 353.376 9.247,353.225 10.345,353.040 10.459 C 352.837 10.584,352.707 12.150,352.711 14.417 C 352.714 16.480,352.641 27.813,352.548 39.603 L 352.380 61.039 353.100 61.709 C 354.093 62.635,355.945 62.608,356.832 61.656 C 357.463 60.979,357.528 60.358,357.863 51.929 C 358.364 39.343,358.522 36.977,358.865 36.977 C 359.042 36.977,359.164 33.320,359.164 27.974 C 359.164 22.186,359.279 18.971,359.486 18.971 C 359.691 18.971,359.807 16.184,359.807 11.254 C 359.807 6.324,359.923 3.537,360.129 3.537 C 360.305 3.537,360.450 3.248,360.450 2.894 C 360.450 2.540,360.305 2.251,360.129 2.251 C 359.952 2.251,359.807 1.832,359.807 1.321 C 359.807 -0.032,360.214 0.000,342.788 0.000 C 327.627 0.000,326.750 0.032,326.094 0.600 M54.075 16.821 C 53.315 17.630,52.984 23.473,53.698 23.473 C 53.899 23.473,54.019 25.456,54.019 28.778 C 54.019 32.101,54.139 34.084,54.341 34.084 C 54.543 34.084,54.662 36.174,54.662 39.711 C 54.662 43.248,54.782 45.338,54.984 45.338 C 55.182 45.338,55.305 46.997,55.305 49.672 C 55.305 54.730,55.047 54.434,59.326 54.275 L 61.897 54.180 61.993 52.170 C 62.052 50.923,61.961 50.161,61.752 50.161 C 61.530 50.161,61.415 48.296,61.415 44.714 C 61.415 41.429,61.287 39.187,61.093 39.068 C 60.899 38.947,60.772 36.646,60.772 33.242 C 60.772 29.572,60.660 27.684,60.450 27.814 C 60.245 27.940,60.129 26.959,60.129 25.099 L 60.129 22.186 198.714 22.186 L 337.299 22.186 337.299 24.116 C 337.299 25.235,337.159 26.045,336.965 26.045 C 336.738 26.045,336.652 30.710,336.695 40.595 C 336.730 48.597,336.584 59.558,336.371 64.952 C 336.158 70.346,335.838 79.678,335.661 85.691 C 335.484 91.704,335.207 100.748,335.045 105.788 C 334.770 114.362,334.571 120.333,333.752 144.534 C 332.880 170.324,332.255 189.479,331.855 202.733 C 331.673 208.746,331.157 224.590,330.708 237.942 C 330.259 251.294,329.734 267.355,329.540 273.633 C 328.837 296.477,328.801 297.207,328.376 297.348 C 328.068 297.450,327.974 299.466,327.974 305.975 C 327.974 311.424,327.859 314.469,327.653 314.469 C 327.476 314.469,327.331 314.759,327.331 315.113 C 327.331 315.755,327.117 315.756,201.929 315.756 L 76.527 315.756 76.527 311.576 C 76.527 309.003,76.404 307.395,76.206 307.395 C 76.004 307.395,75.884 305.305,75.884 301.768 C 75.884 298.232,75.765 296.141,75.563 296.141 C 75.361 296.141,75.241 294.051,75.241 290.514 C 75.241 286.977,75.122 284.887,74.920 284.887 C 74.737 284.887,74.598 283.944,74.598 282.701 C 74.598 279.895,74.423 279.742,71.238 279.748 C 68.680 279.753,67.304 280.132,68.046 280.627 C 68.293 280.792,68.480 284.225,68.638 291.479 C 68.765 297.315,69.001 302.227,69.161 302.395 C 69.322 302.564,69.453 305.123,69.453 308.084 C 69.453 311.326,69.581 313.546,69.775 313.666 C 69.955 313.777,70.096 315.291,70.096 317.103 C 70.096 320.019,70.166 320.403,70.789 320.943 C 71.875 321.885,332.305 321.885,333.391 320.943 C 334.063 320.361,334.084 320.119,334.084 312.904 C 334.084 308.160,334.200 305.466,334.405 305.466 C 334.804 305.466,334.846 298.010,334.450 297.572 C 334.187 297.282,334.314 291.076,335.031 269.132 C 335.202 263.915,335.486 254.871,335.664 249.035 C 336.015 237.486,336.475 223.521,336.995 208.682 C 337.177 203.465,337.473 194.277,337.653 188.264 C 337.832 182.251,338.111 173.280,338.272 168.328 C 338.434 163.376,338.713 154.839,338.892 149.357 C 339.071 143.875,339.292 136.929,339.383 133.923 C 339.475 130.916,339.628 126.648,339.724 124.437 C 339.821 122.227,340.040 115.932,340.212 110.450 C 341.037 84.150,342.182 51.181,342.649 40.273 C 342.734 38.284,342.940 36.656,343.106 36.656 C 343.288 36.656,343.408 32.710,343.408 26.740 L 343.408 16.823 342.589 16.450 C 341.972 16.169,306.485 16.077,198.272 16.077 L 54.774 16.077 54.075 16.821 M56.737 157.640 C 56.652 157.863,56.620 162.385,56.667 167.688 L 56.752 177.331 57.556 177.422 C 58.196 177.494,58.492 177.269,59.003 176.322 C 60.411 173.718,59.915 173.806,73.872 173.703 C 83.707 173.630,86.337 173.697,86.545 174.024 C 86.689 174.251,86.809 187.897,86.812 204.348 L 86.817 234.259 85.865 235.413 C 85.342 236.048,84.466 236.752,83.919 236.979 C 83.117 237.311,82.943 237.553,83.022 238.229 L 83.119 239.068 95.177 239.068 L 107.235 239.068 107.235 238.107 C 107.235 237.381,107.023 237.045,106.366 236.730 C 103.995 235.594,104.167 238.250,104.259 204.215 L 104.341 173.794 116.559 173.713 C 130.388 173.621,130.000 173.557,131.677 176.214 C 132.302 177.205,132.685 177.507,133.216 177.432 L 133.923 177.331 134.008 167.283 L 134.093 157.235 133.163 157.235 C 132.431 157.235,132.147 157.442,131.830 158.206 C 131.609 158.740,131.001 159.536,130.480 159.974 L 129.533 160.772 95.356 160.772 L 61.180 160.772 60.294 160.075 C 59.806 159.691,59.206 158.895,58.960 158.306 C 58.493 157.189,57.074 156.764,56.737 157.640 M170.900 160.176 C 167.735 160.752,165.743 161.166,164.952 161.412 C 164.510 161.549,163.497 161.848,162.701 162.076 C 161.905 162.305,161.117 162.611,160.949 162.757 C 160.781 162.903,160.461 163.023,160.240 163.023 C 158.050 163.023,148.971 168.910,145.387 172.655 C 133.382 185.197,131.713 208.049,141.757 222.347 C 160.228 248.641,208.246 245.737,221.512 217.524 C 222.855 214.669,223.605 212.395,224.483 208.521 C 225.057 205.984,225.067 194.752,224.496 192.283 C 222.471 183.517,219.639 178.139,214.180 172.688 C 207.479 165.997,199.427 161.966,189.389 160.278 C 186.293 159.757,173.585 159.687,170.900 160.176 M237.173 161.280 C 236.798 162.257,236.985 162.674,238.023 163.179 C 239.361 163.830,239.934 164.309,240.434 165.195 C 240.749 165.753,240.836 173.310,240.836 199.948 L 240.836 233.988 240.113 235.057 C 239.715 235.645,238.968 236.358,238.453 236.642 C 237.300 237.279,236.811 238.010,237.077 238.702 C 237.259 239.176,238.471 239.228,249.347 239.228 L 261.415 239.228 261.415 238.284 C 261.415 237.524,261.174 237.205,260.180 236.646 C 257.706 235.256,257.878 237.688,257.878 204.084 C 257.878 176.970,257.928 174.005,258.386 173.829 C 259.713 173.319,302.499 173.622,302.699 174.142 C 302.806 174.422,302.894 187.965,302.894 204.238 C 302.894 237.163,303.018 235.326,300.710 236.542 C 299.746 237.050,299.518 237.351,299.518 238.119 L 299.518 239.068 310.932 239.157 C 323.164 239.253,323.794 239.212,323.794 238.307 C 323.794 237.697,322.853 236.656,322.302 236.656 C 322.128 236.656,321.560 236.212,321.041 235.670 L 320.096 234.685 320.012 200.461 C 319.916 161.865,319.754 164.458,322.336 163.316 C 323.821 162.659,324.182 161.932,323.408 161.158 C 322.739 160.488,237.430 160.610,237.173 161.280 M186.918 173.277 C 187.481 173.449,188.593 173.770,189.389 173.991 C 209.022 179.438,214.149 207.614,197.940 220.977 C 188.381 228.857,172.435 229.071,162.862 221.448 C 144.218 206.601,152.718 175.274,176.045 172.864 C 178.142 172.647,185.811 172.938,186.918 173.277 M49.582 214.800 C 48.718 215.605,48.411 216.743,48.691 218.099 C 48.809 218.667,49.049 221.447,49.225 224.277 C 51.381 259.007,52.283 278.071,51.792 278.562 C 51.356 278.998,51.335 282.637,51.768 282.637 C 51.970 282.637,52.090 284.620,52.090 287.942 C 52.090 290.860,52.200 293.248,52.335 293.248 C 52.470 293.248,52.723 293.573,52.898 293.971 C 53.348 294.997,57.052 295.207,58.135 294.268 C 58.904 293.601,59.252 287.460,58.521 287.460 C 58.323 287.460,58.199 285.852,58.199 283.280 C 58.199 280.981,58.075 279.100,57.923 279.100 C 57.650 279.100,57.506 277.240,56.915 266.077 C 55.997 248.710,55.549 240.635,55.005 231.672 C 53.982 214.837,54.025 215.161,52.770 214.489 C 51.764 213.951,50.345 214.089,49.582 214.800 " stroke="none" fill="#ef4136" fill-rule="evenodd"></path><path id="path4" d="M221.865 101.620 C 208.434 103.926,201.997 116.594,207.987 128.932 C 213.347 139.973,233.124 142.207,242.462 132.826 C 249.585 125.671,249.217 113.343,241.680 106.570 C 236.884 102.261,229.249 100.353,221.865 101.620 M33.119 102.537 C 33.119 102.922,33.422 103.222,33.942 103.352 C 34.761 103.558,35.183 104.313,38.263 111.093 C 38.665 111.977,39.678 114.148,40.514 115.916 C 41.351 117.685,42.332 119.783,42.695 120.579 C 43.259 121.818,44.924 125.400,47.253 130.386 C 48.066 132.127,47.776 132.310,44.283 132.264 C 39.734 132.203,36.525 130.786,35.527 128.399 C 35.262 127.763,34.881 127.333,34.651 127.410 C 34.187 127.564,31.229 135.156,31.205 136.254 C 31.189 137.032,32.241 137.296,32.660 136.618 C 32.963 136.128,34.956 136.434,38.260 137.478 C 43.387 139.097,49.910 139.091,53.237 137.463 C 56.780 135.730,57.445 134.670,64.240 119.936 C 64.851 118.609,65.834 116.493,66.424 115.232 C 67.013 113.972,67.919 112.019,68.436 110.892 C 71.571 104.061,71.664 103.896,72.650 103.386 C 74.973 102.184,74.047 101.929,67.363 101.929 C 61.589 101.929,61.093 101.974,61.093 102.496 C 61.093 102.808,61.419 103.207,61.817 103.384 C 62.664 103.760,62.698 104.931,61.910 106.641 C 61.638 107.233,61.207 108.187,60.954 108.762 C 60.700 109.337,59.904 111.088,59.185 112.653 C 58.466 114.217,57.878 115.542,57.878 115.595 C 57.878 115.648,57.291 116.951,56.573 118.490 C 55.855 120.030,54.922 122.070,54.500 123.024 C 53.608 125.041,53.374 125.134,52.761 123.714 C 52.200 122.414,48.578 114.284,47.497 111.897 C 43.886 103.925,43.935 104.117,45.286 103.291 C 47.177 102.135,46.308 101.929,39.523 101.929 C 33.456 101.929,33.119 101.961,33.119 102.537 M76.211 102.331 C 76.214 102.552,76.576 103.074,77.015 103.490 L 77.814 104.248 77.814 120.103 L 77.814 135.959 76.957 136.583 C 75.076 137.953,75.977 138.264,81.833 138.264 C 87.628 138.264,88.547 137.961,86.787 136.633 L 86.013 136.050 86.013 122.125 L 86.013 108.199 96.222 108.114 L 106.431 108.030 106.431 121.994 L 106.431 135.959 105.575 136.583 C 105.006 136.997,104.787 137.383,104.922 137.735 C 105.262 138.622,116.077 138.526,116.077 137.637 C 116.077 137.292,115.881 136.894,115.642 136.752 C 114.527 136.094,114.469 135.254,114.469 119.764 L 114.469 104.438 115.381 103.586 C 117.189 101.895,117.590 101.929,96.115 101.929 C 80.399 101.929,76.207 102.014,76.211 102.331 M134.727 102.495 C 134.727 102.806,135.016 103.241,135.370 103.462 C 136.380 104.093,136.154 105.153,134.108 109.395 C 131.710 114.367,128.657 120.754,126.688 124.920 C 122.563 133.645,121.699 135.271,120.658 136.262 C 118.731 138.096,119.140 138.264,125.563 138.264 C 131.761 138.264,132.665 137.971,130.760 136.583 C 129.625 135.756,129.666 135.378,131.252 132.064 C 132.886 128.650,132.077 128.896,141.318 129.009 L 148.714 129.100 150.047 131.672 C 151.934 135.314,152.004 135.693,150.943 136.539 C 149.056 138.043,149.816 138.264,156.884 138.264 C 164.225 138.264,164.324 138.223,162.146 136.092 C 161.289 135.253,160.281 133.915,159.907 133.119 C 159.533 132.323,156.338 125.812,152.807 118.650 C 149.275 111.487,146.306 105.410,146.209 105.145 C 146.075 104.780,146.025 104.808,146.006 105.260 C 145.992 105.588,148.890 111.738,152.446 118.925 C 156.002 126.113,159.217 132.645,159.589 133.441 C 159.961 134.236,160.968 135.575,161.826 136.415 L 163.387 137.942 157.095 137.942 C 153.635 137.942,150.804 137.856,150.804 137.752 C 150.804 137.647,151.093 137.193,151.447 136.744 C 152.411 135.518,152.369 135.332,150.078 130.627 L 149.100 128.617 140.778 128.617 C 133.145 128.617,132.438 128.664,132.248 129.180 C 132.134 129.490,131.956 129.815,131.852 129.904 C 131.748 129.992,131.324 130.788,130.909 131.672 C 130.494 132.556,130.026 133.531,129.868 133.838 C 129.323 134.902,129.525 136.595,130.225 136.817 C 130.579 136.929,130.868 137.228,130.868 137.481 C 130.868 137.863,129.932 137.942,125.402 137.942 C 119.679 137.942,119.349 137.854,120.871 136.728 C 121.725 136.097,125.331 129.303,127.384 124.459 C 128.634 121.509,128.779 121.222,129.017 121.222 C 129.151 121.222,129.259 121.041,129.258 120.820 C 129.257 120.599,129.965 118.971,130.831 117.203 C 136.946 104.719,137.097 104.289,135.742 103.192 C 134.617 102.281,134.783 102.251,140.997 102.251 C 146.348 102.251,147.885 102.464,146.463 103.010 C 146.198 103.112,145.981 103.410,145.981 103.672 C 145.981 104.023,146.194 103.951,146.785 103.404 C 148.295 102.004,148.008 101.929,141.158 101.929 C 135.234 101.929,134.727 101.974,134.727 102.495 M166.559 102.440 C 166.559 102.722,166.885 103.215,167.283 103.537 L 168.006 104.123 168.006 120.086 L 168.006 136.050 167.233 136.633 C 165.433 137.991,166.385 138.287,172.233 138.191 C 178.006 138.096,178.535 137.922,177.031 136.614 C 175.831 135.571,175.734 126.188,176.911 125.092 C 178.676 123.447,181.261 121.613,181.537 121.810 C 181.796 121.993,183.392 123.883,185.209 126.156 C 185.474 126.488,185.844 126.925,186.031 127.126 C 187.324 128.518,192.926 135.787,192.926 136.071 C 192.926 136.265,192.685 136.600,192.391 136.815 C 190.731 138.030,191.956 138.280,199.108 138.190 C 206.550 138.095,207.289 137.876,204.721 136.523 C 203.565 135.914,201.750 133.833,190.554 120.276 C 189.029 118.430,187.786 116.766,187.791 116.579 C 187.803 116.168,203.570 103.497,204.495 103.155 C 204.852 103.023,205.145 102.690,205.145 102.416 C 205.145 101.749,190.335 101.822,190.113 102.490 C 190.040 102.710,190.353 103.032,190.810 103.205 C 192.400 103.810,192.351 103.862,183.601 110.918 L 176.367 116.752 176.279 110.429 L 176.192 104.106 177.003 103.409 C 178.589 102.047,178.206 101.929,172.186 101.929 C 167.258 101.929,166.559 101.993,166.559 102.440 M232.315 102.251 C 232.424 102.428,232.869 102.572,233.303 102.572 C 233.737 102.572,234.344 102.701,234.651 102.858 C 234.958 103.014,236.209 103.629,237.431 104.224 C 241.411 106.161,246.302 111.962,246.302 114.745 C 246.302 115.103,246.447 115.486,246.624 115.595 C 247.071 115.871,247.033 123.634,246.578 125.058 C 244.769 130.711,238.061 137.299,234.114 137.299 C 233.802 137.299,233.441 137.408,233.310 137.540 C 231.778 139.092,220.677 138.192,216.190 136.152 C 212.611 134.525,207.395 128.727,207.395 126.376 C 207.395 126.038,207.270 125.684,207.117 125.589 C 206.116 124.971,206.078 116.400,207.065 113.987 C 209.020 109.210,211.775 106.057,215.595 104.227 C 216.833 103.633,218.097 103.018,218.404 102.860 C 218.711 102.702,219.290 102.570,219.690 102.567 C 220.090 102.565,220.635 102.422,220.900 102.251 C 221.549 101.832,232.056 101.832,232.315 102.251 M252.733 102.354 C 252.733 102.610,253.095 103.057,253.537 103.347 L 254.341 103.873 254.341 119.845 L 254.341 135.817 253.462 136.734 C 252.048 138.211,252.481 138.260,266.238 138.182 L 278.939 138.111 266.559 138.026 C 252.871 137.932,252.963 137.941,253.971 136.868 C 255.056 135.713,255.062 104.120,253.977 103.179 C 253.378 102.659,253.357 102.559,253.814 102.384 C 254.875 101.977,282.256 102.384,282.685 102.814 C 282.906 103.035,283.343 103.215,283.656 103.215 C 285.070 103.215,288.746 106.034,288.746 107.118 C 288.746 107.427,288.891 107.769,289.068 107.878 C 289.245 107.988,289.389 109.432,289.389 111.102 C 289.389 114.894,288.407 117.012,286.094 118.208 C 284.861 118.846,284.966 119.125,286.931 120.429 C 287.878 121.058,288.843 121.928,289.075 122.362 C 289.308 122.796,289.618 123.151,289.765 123.151 C 289.912 123.151,290.032 123.504,290.032 123.936 C 290.032 124.368,290.177 124.810,290.354 124.920 C 290.809 125.201,290.753 129.652,290.273 131.266 C 289.840 132.723,287.256 135.625,285.852 136.230 C 283.786 137.120,283.178 137.299,282.220 137.304 C 281.653 137.307,280.973 137.449,280.707 137.621 C 279.951 138.109,281.535 138.026,283.694 137.464 C 291.764 135.362,294.046 124.378,287.299 120.114 C 285.568 119.020,285.565 119.002,286.962 118.096 C 291.828 114.945,290.730 105.693,285.209 103.320 C 284.767 103.129,283.971 102.776,283.441 102.535 C 281.955 101.858,252.733 101.686,252.733 102.354 M296.463 102.495 C 296.463 102.806,296.752 103.241,297.106 103.462 C 297.735 103.855,297.749 104.212,297.749 120.088 C 297.749 135.983,297.736 136.319,297.106 136.656 C 296.752 136.845,296.463 137.284,296.463 137.632 C 296.463 138.235,296.710 138.264,301.939 138.264 C 308.002 138.264,308.618 138.047,306.951 136.502 C 306.113 135.726,306.109 135.698,306.114 130.803 C 306.120 125.349,306.032 125.656,308.039 124.110 C 308.834 123.498,309.766 122.742,310.109 122.431 C 311.291 121.358,311.369 121.407,314.309 125.078 C 315.370 126.403,317.593 129.145,319.249 131.172 C 322.840 135.567,323.174 136.172,322.349 136.776 C 320.727 137.961,321.861 138.264,327.930 138.264 C 334.595 138.264,335.523 137.767,333.189 135.453 C 332.420 134.691,331.574 133.693,328.939 130.444 C 328.674 130.117,328.187 129.536,327.858 129.153 C 327.529 128.770,326.733 127.805,326.090 127.010 C 325.446 126.214,324.839 125.490,324.740 125.402 C 324.594 125.271,322.113 122.265,319.614 119.189 C 319.349 118.863,318.806 118.210,318.409 117.738 C 317.376 116.514,317.394 116.485,320.775 113.826 C 322.461 112.500,324.156 111.145,324.541 110.816 C 324.926 110.486,325.748 109.836,326.367 109.371 C 326.986 108.905,327.564 108.445,327.653 108.347 C 327.741 108.249,328.688 107.503,329.757 106.689 C 330.826 105.875,331.912 104.954,332.169 104.643 C 332.426 104.332,333.215 103.815,333.923 103.493 C 335.045 102.982,335.104 102.907,334.385 102.901 C 333.932 102.897,333.281 103.152,332.938 103.468 C 332.596 103.784,330.868 105.194,329.100 106.603 C 327.331 108.012,325.691 109.347,325.454 109.571 C 325.218 109.795,324.495 110.372,323.847 110.853 C 323.199 111.335,322.452 111.955,322.186 112.230 C 321.921 112.506,321.198 113.084,320.579 113.516 C 319.960 113.947,319.164 114.549,318.810 114.854 C 318.457 115.159,317.890 115.611,317.550 115.858 C 316.865 116.359,317.323 117.419,319.037 119.298 C 320.434 120.831,322.028 122.712,322.990 123.963 C 323.521 124.653,324.534 125.886,325.241 126.703 C 325.949 127.520,327.705 129.623,329.145 131.377 C 330.584 133.131,332.221 135.044,332.782 135.629 C 334.685 137.612,334.340 137.770,327.890 137.869 C 322.295 137.955,321.323 137.784,322.830 136.977 C 324.050 136.325,323.991 136.230,317.203 127.954 C 315.788 126.230,313.979 124.010,313.183 123.022 C 311.540 120.982,311.169 120.883,309.772 122.111 C 309.223 122.595,308.295 123.352,307.712 123.794 C 305.711 125.310,305.788 125.028,305.788 130.884 L 305.788 136.320 306.592 136.846 C 308.045 137.799,307.455 137.942,302.090 137.942 C 296.489 137.942,296.333 137.899,297.594 136.703 L 298.392 135.945 298.392 119.925 L 298.392 103.905 297.588 103.273 C 296.330 102.283,296.471 102.251,302.090 102.251 C 305.413 102.251,307.395 102.371,307.395 102.572 C 307.395 102.749,307.231 102.894,307.029 102.894 C 305.984 102.894,305.808 103.987,305.798 110.531 C 305.790 115.833,305.870 117.042,306.228 117.042 C 306.642 117.042,309.552 114.913,310.611 113.835 C 310.877 113.565,311.745 112.840,312.541 112.223 C 313.336 111.607,314.204 110.926,314.469 110.711 C 314.735 110.496,316.254 109.272,317.846 107.990 C 322.502 104.240,323.282 102.894,320.797 102.894 C 320.335 102.894,320.232 102.791,320.462 102.560 C 320.679 102.344,323.303 102.259,327.922 102.319 C 331.842 102.370,335.049 102.300,335.049 102.164 C 335.048 101.717,320.167 102.039,320.017 102.490 C 319.943 102.710,320.257 103.032,320.713 103.205 C 322.398 103.846,322.360 103.883,309.520 114.144 C 309.185 114.411,308.443 115.028,307.870 115.514 C 306.129 116.992,306.109 116.936,306.109 110.475 C 306.109 104.625,306.119 104.539,306.913 103.596 C 308.285 101.966,308.179 101.929,302.090 101.929 C 296.934 101.929,296.463 101.977,296.463 102.495 M351.768 102.362 C 351.768 102.600,352.058 103.056,352.412 103.376 C 353.335 104.212,353.217 105.138,351.803 108.126 C 351.115 109.581,349.656 112.653,348.562 114.952 C 347.468 117.251,346.127 120.072,345.584 121.222 C 345.040 122.371,343.455 125.687,342.063 128.590 C 340.671 131.492,339.591 134.024,339.663 134.217 C 339.735 134.409,339.964 134.132,340.172 133.601 C 340.379 133.071,341.539 130.611,342.751 128.135 C 344.968 123.602,347.478 118.335,349.263 114.469 C 349.794 113.320,350.938 110.932,351.805 109.164 C 353.561 105.580,353.822 103.886,352.735 103.124 C 351.645 102.361,352.333 102.251,358.199 102.251 C 364.476 102.251,364.578 102.273,363.451 103.401 C 362.490 104.362,362.508 104.441,364.861 109.325 C 375.270 130.934,378.735 137.299,380.089 137.299 C 380.252 137.299,380.386 137.444,380.386 137.621 C 380.386 137.824,378.081 137.942,374.116 137.942 C 367.518 137.942,367.381 137.911,368.663 136.695 C 369.606 135.800,369.607 135.803,367.652 131.620 L 366.249 128.617 357.871 128.617 L 349.493 128.617 348.058 131.646 C 346.472 134.995,346.296 136.125,347.267 136.731 C 348.825 137.704,348.038 137.964,343.824 137.871 C 339.777 137.782,339.736 137.774,339.501 136.977 C 339.279 136.229,339.267 136.240,339.326 137.138 L 339.389 138.103 343.730 138.183 C 348.850 138.278,349.546 138.041,347.987 136.732 C 346.674 135.629,346.675 135.614,348.251 132.235 C 349.912 128.673,349.105 128.949,357.878 128.949 C 366.646 128.949,365.802 128.661,367.486 132.228 C 369.052 135.548,369.072 135.745,367.936 136.798 C 366.484 138.144,367.117 138.286,374.135 138.190 C 379.933 138.111,380.548 138.050,380.646 137.541 C 380.715 137.183,380.469 136.871,379.969 136.681 C 378.759 136.221,378.109 135.193,374.813 128.531 C 373.131 125.130,369.862 118.524,367.549 113.850 C 363.151 104.963,362.817 103.928,364.122 103.229 C 364.569 102.990,364.828 102.625,364.731 102.371 C 364.484 101.727,351.768 101.718,351.768 102.362 M45.338 102.495 C 45.338 102.629,45.048 102.920,44.695 103.141 C 44.007 103.570,43.826 105.036,44.338 106.033 C 44.495 106.340,44.946 107.315,45.340 108.199 C 45.734 109.084,46.329 110.363,46.662 111.043 C 46.995 111.723,47.267 112.483,47.267 112.731 C 47.267 112.980,47.412 113.183,47.588 113.183 C 47.765 113.183,47.910 113.378,47.910 113.616 C 47.910 113.854,48.113 114.469,48.361 114.983 C 48.610 115.496,49.132 116.640,49.523 117.524 C 49.913 118.408,50.596 119.928,51.040 120.900 C 51.484 121.873,52.114 123.284,52.439 124.035 C 53.054 125.453,53.897 125.832,54.226 124.839 C 54.455 124.151,56.179 120.308,56.605 119.538 C 56.774 119.231,56.913 118.761,56.913 118.493 C 56.913 118.225,57.058 118.006,57.235 118.006 C 57.412 118.006,57.556 117.810,57.556 117.569 C 57.556 117.329,57.976 116.280,58.488 115.238 C 59.000 114.196,59.782 112.548,60.225 111.576 C 60.668 110.603,61.428 108.939,61.913 107.878 C 63.055 105.378,63.143 103.501,62.138 103.059 C 60.646 102.404,61.564 102.251,66.988 102.251 C 72.637 102.251,73.563 102.388,72.267 103.034 C 71.587 103.373,70.422 105.509,67.432 111.897 C 66.812 113.223,65.710 115.578,64.985 117.128 C 64.259 118.679,63.666 120.004,63.666 120.073 C 63.666 120.142,63.004 121.622,62.195 123.363 C 61.386 125.103,60.360 127.323,59.916 128.296 C 59.472 129.268,58.951 130.354,58.758 130.707 C 58.566 131.061,58.108 131.912,57.741 132.599 C 55.371 137.033,50.587 138.864,43.350 138.107 C 41.638 137.928,40.131 137.673,40.001 137.540 C 39.871 137.408,39.497 137.299,39.170 137.299 C 38.844 137.299,38.325 137.172,38.018 137.017 C 36.090 136.043,33.295 135.724,32.133 136.346 C 31.312 136.785,31.338 136.582,32.507 133.410 C 33.417 130.939,33.684 130.203,34.281 128.530 C 34.504 127.904,35.370 128.340,35.370 129.079 C 35.370 129.867,38.074 131.833,39.160 131.833 C 39.480 131.833,39.880 131.963,40.048 132.123 C 40.658 132.703,44.510 132.983,46.865 132.619 C 48.457 132.374,48.600 131.866,47.588 130.064 C 47.235 129.435,46.945 128.707,46.945 128.447 C 46.945 128.187,46.801 127.974,46.624 127.974 C 46.447 127.974,46.302 127.685,46.302 127.331 C 46.302 126.977,46.158 126.688,45.981 126.688 C 45.804 126.688,45.659 126.498,45.659 126.266 C 45.659 126.034,45.384 125.274,45.048 124.578 C 44.712 123.882,44.004 122.371,43.475 121.222 C 41.087 116.036,39.774 113.227,39.048 111.754 C 38.616 110.879,38.264 109.974,38.264 109.744 C 38.264 109.513,38.119 109.325,37.942 109.325 C 37.765 109.325,37.621 109.035,37.621 108.682 C 37.621 108.328,37.476 108.039,37.299 108.039 C 37.122 108.039,36.977 107.826,36.977 107.566 C 36.977 107.306,36.688 106.578,36.334 105.949 C 35.981 105.319,35.691 104.639,35.691 104.437 C 35.691 103.841,34.674 102.894,34.034 102.894 C 33.707 102.894,33.441 102.749,33.441 102.572 C 33.441 102.370,35.638 102.251,39.389 102.251 C 42.661 102.251,45.338 102.361,45.338 102.495 M115.756 102.446 C 115.756 102.553,115.394 102.925,114.952 103.273 L 114.148 103.905 114.148 119.925 L 114.148 135.945 114.946 136.703 C 116.208 137.899,116.051 137.942,110.450 137.942 C 105.082 137.942,104.495 137.799,105.952 136.844 L 106.759 136.315 106.675 122.097 L 106.592 107.878 96.341 107.793 C 89.044 107.732,85.963 107.813,85.649 108.073 C 85.290 108.372,85.209 110.875,85.209 121.760 C 85.209 135.720,85.289 136.569,86.644 137.089 C 88.192 137.683,86.782 137.942,81.994 137.942 C 76.716 137.942,75.903 137.723,77.492 136.731 C 78.486 136.110,78.503 103.944,77.509 103.228 C 77.165 102.980,76.956 102.658,77.046 102.514 C 77.231 102.214,115.756 102.147,115.756 102.446 M176.973 102.514 C 177.063 102.658,176.854 102.980,176.510 103.228 C 175.860 103.696,175.499 116.766,176.125 117.153 C 176.337 117.283,179.133 115.182,182.199 112.590 C 182.754 112.120,183.695 111.351,184.289 110.880 C 191.836 104.899,192.602 104.148,191.950 103.362 C 191.736 103.105,191.362 102.894,191.118 102.894 C 190.875 102.894,190.675 102.749,190.675 102.572 C 190.675 102.368,193.194 102.251,197.588 102.251 C 201.983 102.251,204.502 102.368,204.502 102.572 C 204.502 102.749,204.312 102.894,204.080 102.894 C 203.848 102.894,203.378 103.153,203.035 103.471 C 202.692 103.788,200.965 105.191,199.196 106.589 C 197.428 107.986,195.908 109.211,195.820 109.310 C 195.732 109.408,195.129 109.884,194.481 110.367 C 193.833 110.849,193.110 111.427,192.873 111.651 C 192.637 111.875,191.914 112.454,191.266 112.937 C 190.618 113.421,189.894 114.004,189.658 114.234 C 189.422 114.464,188.758 114.982,188.183 115.386 C 186.682 116.442,187.049 117.127,192.251 122.990 C 192.722 123.521,193.335 124.284,193.614 124.685 C 193.893 125.087,194.612 125.955,195.212 126.615 C 195.812 127.274,196.685 128.320,197.154 128.939 C 197.622 129.558,198.273 130.355,198.601 130.711 C 198.928 131.066,199.774 132.079,200.481 132.962 C 202.248 135.168,204.120 136.977,204.636 136.977 C 204.872 136.977,205.246 137.195,205.466 137.460 C 205.820 137.886,205.095 137.942,199.254 137.942 C 192.823 137.942,191.498 137.742,192.917 136.982 C 193.891 136.461,193.287 135.009,191.108 132.633 C 190.781 132.278,189.939 131.265,189.235 130.383 C 188.531 129.500,187.769 128.585,187.542 128.348 C 187.315 128.112,186.734 127.389,186.253 126.741 C 185.771 126.093,185.157 125.346,184.887 125.080 C 184.618 124.815,183.991 124.051,183.494 123.383 C 182.306 121.787,181.272 120.840,181.048 121.143 C 180.949 121.277,180.338 121.781,179.690 122.264 C 179.042 122.746,178.319 123.334,178.082 123.570 C 177.846 123.805,177.255 124.258,176.768 124.576 L 175.884 125.154 175.884 130.695 C 175.884 135.804,175.934 136.279,176.520 136.810 C 177.602 137.790,176.973 137.942,171.846 137.942 C 166.594 137.942,166.434 137.894,167.690 136.703 L 168.489 135.945 168.489 120.048 L 168.489 104.151 167.685 103.347 C 167.243 102.905,166.881 102.477,166.881 102.397 C 166.881 102.131,176.808 102.246,176.973 102.514 M223.151 107.534 C 218.888 108.720,216.112 111.396,214.189 116.173 C 213.740 117.286,213.707 123.040,214.148 123.312 C 214.325 123.421,214.469 123.778,214.469 124.104 C 214.469 126.581,218.505 130.743,222.186 132.063 C 223.483 132.528,229.953 132.621,230.792 132.187 C 231.099 132.029,231.972 131.642,232.731 131.328 C 234.172 130.733,237.299 128.064,237.299 127.430 C 237.299 127.228,237.414 127.015,237.555 126.956 C 239.056 126.329,240.108 118.020,238.987 115.644 C 238.766 115.175,238.404 114.395,238.183 113.911 C 235.850 108.805,229.011 105.904,223.151 107.534 M232.565 108.944 C 233.888 109.595,235.191 110.557,236.010 111.488 C 237.235 112.879,237.544 113.413,238.552 115.878 C 239.046 117.084,239.048 122.783,238.556 123.986 C 237.494 126.577,237.145 127.133,235.615 128.663 C 229.043 135.235,217.577 132.547,214.811 123.785 C 211.443 113.118,222.414 103.947,232.565 108.944 M262.460 107.930 C 261.906 108.153,261.892 115.783,262.444 116.334 C 262.870 116.760,273.630 116.883,277.612 116.507 C 282.769 116.020,284.358 110.081,279.837 108.192 C 278.722 107.726,263.533 107.497,262.460 107.930 M278.939 108.394 C 281.367 109.058,282.367 110.861,281.676 113.329 C 280.957 115.899,280.249 116.077,270.776 116.077 L 262.701 116.077 262.701 112.272 C 262.701 110.180,262.797 108.371,262.915 108.253 C 263.280 107.888,277.550 108.014,278.939 108.394 M138.965 114.548 C 138.092 116.362,137.043 118.641,136.633 119.614 C 136.222 120.587,135.649 121.817,135.359 122.347 C 134.419 124.066,134.574 124.116,140.863 124.116 C 145.638 124.116,146.624 124.037,146.624 123.657 C 146.624 123.207,144.966 119.368,143.719 116.931 C 143.371 116.251,143.087 115.491,143.087 115.243 C 143.087 114.994,142.942 114.791,142.765 114.791 C 142.588 114.791,142.444 114.510,142.444 114.167 C 142.444 113.824,142.299 113.453,142.122 113.344 C 141.945 113.235,141.801 112.870,141.801 112.533 C 141.801 110.368,140.548 111.258,138.965 114.548 M355.989 114.871 C 355.050 116.861,353.866 119.357,353.358 120.418 C 352.849 121.479,352.340 122.745,352.227 123.232 L 352.020 124.116 357.878 124.116 L 363.735 124.116 363.530 123.232 C 363.416 122.745,363.039 121.732,362.691 120.981 C 362.343 120.229,361.786 118.999,361.453 118.248 C 359.685 114.249,358.187 111.254,357.957 111.254 C 357.814 111.254,356.928 112.882,355.989 114.871 M141.801 113.685 C 142.155 114.470,142.748 115.800,143.121 116.640 C 143.493 117.480,144.289 119.212,144.889 120.489 C 145.490 121.766,145.981 122.960,145.981 123.142 C 145.981 123.355,144.099 123.473,140.687 123.473 L 135.393 123.473 135.981 122.106 C 136.499 120.901,137.324 119.116,139.975 113.456 C 140.783 111.731,140.931 111.749,141.801 113.685 M360.149 116.418 C 361.230 118.795,362.379 121.318,362.703 122.026 L 363.293 123.312 358.128 123.400 C 352.054 123.505,352.409 123.679,353.542 121.148 C 355.780 116.149,357.899 111.811,358.036 111.948 C 358.118 112.030,359.069 114.042,360.149 116.418 M262.272 122.401 C 261.872 122.801,262.029 131.675,262.444 132.090 C 262.988 132.635,276.677 132.621,279.069 132.074 C 283.981 130.950,284.854 125.038,280.471 122.588 C 279.698 122.157,262.692 121.982,262.272 122.401 M280.062 123.027 C 283.910 124.566,283.568 130.366,279.563 131.477 C 278.807 131.687,275.153 131.830,270.498 131.831 L 262.701 131.833 262.701 127.170 L 262.701 122.508 270.733 122.508 C 277.374 122.508,278.990 122.598,280.062 123.027 " stroke="none" fill="#c2bfbf" fill-rule="evenodd"></path></g></svg>